<?xml version="1.0" standalone="no"?>
<!DOCTYPE svg PUBLIC "-//W3C//DTD SVG 20010904//EN"
 "http://www.w3.org/TR/2001/REC-SVG-20010904/DTD/svg10.dtd">
<svg version="1.0" xmlns="http://www.w3.org/2000/svg"
 width="1024.000000pt" height="1024.000000pt" viewBox="0 0 1024.000000 1024.000000"
 preserveAspectRatio="xMidYMid meet">
<metadata>
Created by potrace 1.11, written by Peter Selinger 2001-2013
</metadata>
<g transform="translate(0.000000,1024.000000) scale(0.100000,-0.100000)"
fill="#000000" stroke="none">
<path d="M4885 10129 c-222 -17 -441 -41 -559 -60 -801 -131 -1548 -445 -2191
-923 -379 -282 -759 -662 -1041 -1041 -507 -683 -837 -1500 -943 -2335 -60
-473 -60 -827 0 -1298 120 -946 511 -1834 1140 -2587 117 -139 389 -415 533
-540 556 -482 1205 -838 1884 -1035 391 -113 724 -168 1224 -201 197 -13 373
-7 708 27 1018 102 1983 522 2776 1209 144 125 416 401 533 540 696 834 1090
1804 1171 2890 26 350 24 447 -16 860 -86 882 -422 1749 -958 2470 -282 379
-662 759 -1041 1041 -645 479 -1401 797 -2195 923 -165 26 -273 38 -519 56
-219 16 -333 17 -506 4z m-2513 -4450 c913 -462 1664 -837 1668 -832 23 26
678 818 852 1028 113 138 213 257 223 265 11 9 21 11 30 4 7 -5 156 -184 332
-398 813 -994 984 -1201 993 -1199 5 2 714 419 1575 929 862 509 1569 924
1571 921 6 -6 -1834 -3439 -1848 -3449 -15 -10 -5464 2 -5491 12 -14 4 -247
523 -803 1781 -431 976 -784 1775 -784 1777 0 11 218 -98 1682 -839z"/>
</g>
</svg>
